# xmcd
#
# Track frame offsets: 
#        180
#        19097
#        37702
#        57752
#        80947
#        100875
#        121127
#        143012
#        164532
#        180887
#        201397
#        220007
#
# Disc length: 3234 seconds
#
# Revision: 3
# Processed by: cddbd v1.4PL0 Copyright (c) Steve Scherf et al.
# Submitted via: ExactAudioCopy v0.95a4
#
DISCID=9a0ca00c
DTITLE=The Boneshakers - Shake The Planet
DYEAR=1998
DGENRE=Blues Rock
TTITLE0=Hand Over Fist, Heart Over Mind
TTITLE1=Pouring Gasoline On A Burning Man
TTITLE2=Ball And Chain
TTITLE3=Don't Change Horses (In The Middle Of The Stream)
TTITLE4=Yeserday's Gone
TTITLE5=Compromise, Communicate
TTITLE6=Teach Me How To Stay
TTITLE7=Livin'
TTITLE8=Water In The Well
TTITLE9=Hype
TTITLE10=Rush
TTITLE11=She's A Heartache
EXTD=
EXTT0=
EXTT1=
EXTT2=
EXTT3=
EXTT4=
EXTT5=
EXTT6=
EXTT7=
EXTT8=
EXTT9=
EXTT10=
EXTT11=
PLAYORDER=
